<svg xmlns="http://www.w3.org/2000/svg" width="64" height="20" viewBox="0 0 64 20" fill="none">
  <rect x="0.5" y="0.5" width="63" height="19" rx="4.5" fill="#032541" stroke="#1ED5A9"/>
  <path d="M10.18 14V7.38H7.66V6H14.22V7.38H11.7V14H10.18ZM15.4831 14V6H16.9951L19.0891 11.316L21.1831 6H22.6951V14H21.1831V8.88L19.2991 13.596H18.8791L16.9951 8.88V14H15.4831ZM24.6552 14V6H27.3912C30.1152 6 31.5432 7.512 31.5432 10C31.5432 12.488 30.1152 14 27.3912 14H24.6552ZM26.1672 12.64H27.3192C28.9912 12.64 29.9592 11.756 29.9592 10C29.9592 8.244 28.9912 7.36 27.3192 7.36H26.1672V12.64ZM33.1103 14V6H36.0983C37.5623 6 38.4223 6.752 38.4223 7.976C38.4223 8.872 37.9663 9.42 37.2383 9.636C38.1103 9.852 38.6503 10.484 38.6503 11.464C38.6503 13.012 37.6223 14 35.9783 14H33.1103ZM34.6223 9.168H35.8583C36.5263 9.168 36.8743 8.836 36.8743 8.256C36.8743 7.676 36.5263 7.36 35.8583 7.36H34.6223V9.168ZM34.6223 12.64H35.9183C36.6943 12.64 37.1023 12.248 37.1023 11.596C37.1023 10.944 36.6943 10.528 35.9183 10.528H34.6223V12.64Z" fill="#1ED5A9"/>
</svg>
